<svg width="170" height="27" viewBox="0 0 170 27" fill="none" xmlns="http://www.w3.org/2000/svg">
<path d="M46.4 21.2C45.0133 21.2 43.84 20.96 42.88 20.48C41.9333 19.9867 41.12 19.2933 40.44 18.4L42.52 16.06C43.1733 16.9533 43.8333 17.5533 44.5 17.86C45.1667 18.1667 45.8533 18.32 46.56 18.32C46.92 18.32 47.24 18.2733 47.52 18.18C47.8133 18.0867 48.04 17.9533 48.2 17.78C48.3733 17.5933 48.46 17.3733 48.46 17.12C48.46 16.92 48.4067 16.74 48.3 16.58C48.2067 16.42 48.0733 16.28 47.9 16.16C47.7267 16.04 47.5267 15.9333 47.3 15.84C47.0733 15.7333 46.82 15.6467 46.54 15.58C46.2733 15.5133 46 15.4533 45.72 15.4C44.9467 15.24 44.2733 15.0333 43.7 14.78C43.14 14.5133 42.6667 14.2 42.28 13.84C41.9067 13.4667 41.6267 13.0467 41.44 12.58C41.2533 12.1 41.16 11.56 41.16 10.96C41.16 10.1067 41.4 9.36 41.88 8.72C42.3733 8.08 43.02 7.58 43.82 7.22C44.62 6.86 45.4867 6.68 46.42 6.68C47.78 6.68 48.8733 6.9 49.7 7.34C50.54 7.76667 51.2067 8.36 51.7 9.12L49.58 11.18C49.1667 10.6467 48.6933 10.2467 48.16 9.98C47.64 9.71333 47.0933 9.58 46.52 9.58C46.1333 9.58 45.7933 9.62667 45.5 9.72C45.2067 9.81333 44.98 9.95333 44.82 10.14C44.6733 10.3133 44.6 10.5267 44.6 10.78C44.6 10.9933 44.66 11.1867 44.78 11.36C44.9133 11.52 45.0933 11.66 45.32 11.78C45.5467 11.9 45.8067 12.0067 46.1 12.1C46.3933 12.18 46.7 12.2467 47.02 12.3C47.7533 12.4467 48.4133 12.64 49 12.88C49.6 13.12 50.1133 13.42 50.54 13.78C50.9667 14.1267 51.2933 14.54 51.52 15.02C51.76 15.4867 51.88 16.0267 51.88 16.64C51.88 17.6 51.6467 18.42 51.18 19.1C50.7133 19.78 50.0667 20.3 49.24 20.66C48.4133 21.02 47.4667 21.2 46.4 21.2ZM53.7153 21V6.2H56.8953V12.54L56.2353 12.78C56.382 12.3 56.642 11.8667 57.0153 11.48C57.402 11.08 57.862 10.76 58.3953 10.52C58.9286 10.28 59.4886 10.16 60.0753 10.16C60.8753 10.16 61.5486 10.3267 62.0953 10.66C62.642 10.98 63.0486 11.4667 63.3153 12.12C63.5953 12.76 63.7353 13.5533 63.7353 14.5V21H60.5153V14.74C60.5153 14.3133 60.4553 13.96 60.3353 13.68C60.2153 13.4 60.0353 13.1933 59.7953 13.06C59.5553 12.9267 59.2553 12.8667 58.8953 12.88C58.6153 12.88 58.3553 12.9267 58.1153 13.02C57.8753 13.1 57.662 13.2267 57.4753 13.4C57.302 13.56 57.1686 13.7467 57.0753 13.96C56.982 14.1733 56.9353 14.4133 56.9353 14.68V21H55.3153C54.9686 21 54.6553 21 54.3753 21C54.1086 21 53.8886 21 53.7153 21ZM71.0102 21.2C69.9168 21.2 68.9368 20.9667 68.0702 20.5C67.2035 20.02 66.5235 19.3667 66.0302 18.54C65.5368 17.7 65.2902 16.7533 65.2902 15.7C65.2902 14.62 65.5368 13.6667 66.0302 12.84C66.5235 12 67.2035 11.3467 68.0702 10.88C68.9368 10.4 69.9168 10.16 71.0102 10.16C72.1168 10.16 73.0968 10.4 73.9502 10.88C74.8168 11.3467 75.4968 12 75.9902 12.84C76.4835 13.6667 76.7302 14.62 76.7302 15.7C76.7302 16.7533 76.4835 17.7 75.9902 18.54C75.4968 19.3667 74.8168 20.02 73.9502 20.5C73.0968 20.9667 72.1168 21.2 71.0102 21.2ZM71.0102 18.44C71.4902 18.44 71.9102 18.32 72.2702 18.08C72.6435 17.84 72.9368 17.5133 73.1502 17.1C73.3635 16.6867 73.4635 16.22 73.4502 15.7C73.4635 15.1533 73.3635 14.6733 73.1502 14.26C72.9368 13.8333 72.6435 13.5067 72.2702 13.28C71.9102 13.04 71.4902 12.92 71.0102 12.92C70.5435 12.92 70.1235 13.04 69.7502 13.28C69.3768 13.52 69.0835 13.8467 68.8702 14.26C68.6568 14.6733 68.5502 15.1533 68.5502 15.7C68.5502 16.22 68.6568 16.6867 68.8702 17.1C69.0835 17.5133 69.3768 17.84 69.7502 18.08C70.1235 18.32 70.5435 18.44 71.0102 18.44ZM78.4231 21V10.38H81.4831L81.6231 13.84L81.0231 13.16C81.1965 12.6 81.4631 12.0933 81.8231 11.64C82.1831 11.1867 82.6098 10.8267 83.1031 10.56C83.6098 10.2933 84.1365 10.16 84.6831 10.16C84.9231 10.16 85.1431 10.18 85.3431 10.22C85.5565 10.2467 85.7431 10.2933 85.9031 10.36L85.0431 13.9C84.8965 13.82 84.6965 13.7533 84.4431 13.7C84.2031 13.6333 83.9498 13.6 83.6831 13.6C83.3898 13.6 83.1165 13.6533 82.8631 13.76C82.6231 13.8533 82.4098 13.9933 82.2231 14.18C82.0498 14.3667 81.9098 14.5867 81.8031 14.84C81.7098 15.0933 81.6631 15.38 81.6631 15.7V21H78.4231ZM88.4148 21V7.7H91.6348V21H88.4148ZM86.5348 13.2V10.38H93.6748V13.2H86.5348ZM100.085 21.2C98.9121 21.2 97.8855 20.9667 97.0055 20.5C96.1388 20.0333 95.4655 19.3933 94.9855 18.58C94.5188 17.7533 94.2855 16.8133 94.2855 15.76C94.2855 14.9333 94.4188 14.18 94.6855 13.5C94.9521 12.8067 95.3255 12.2133 95.8055 11.72C96.2988 11.2267 96.8721 10.8467 97.5255 10.58C98.1921 10.3 98.9188 10.16 99.7055 10.16C100.452 10.16 101.132 10.2933 101.745 10.56C102.359 10.8267 102.892 11.2 103.345 11.68C103.799 12.16 104.145 12.7267 104.385 13.38C104.625 14.0333 104.739 14.7467 104.725 15.52L104.705 16.4H96.2655L95.7855 14.58H102.085L101.745 14.94V14.54C101.719 14.2067 101.612 13.92 101.425 13.68C101.252 13.4267 101.019 13.2267 100.725 13.08C100.445 12.9333 100.125 12.86 99.7655 12.86C99.2321 12.86 98.7788 12.9667 98.4055 13.18C98.0455 13.38 97.7721 13.6733 97.5855 14.06C97.3988 14.4467 97.3055 14.9267 97.3055 15.5C97.3055 16.0733 97.4255 16.58 97.6655 17.02C97.9188 17.46 98.2788 17.8 98.7455 18.04C99.2255 18.28 99.7921 18.4 100.445 18.4C100.885 18.4 101.285 18.3333 101.645 18.2C102.005 18.0667 102.392 17.84 102.805 17.52L104.305 19.64C103.892 19.9867 103.452 20.28 102.985 20.52C102.519 20.7467 102.039 20.9133 101.545 21.02C101.065 21.14 100.579 21.2 100.085 21.2ZM106.364 21V10.38H109.424L109.564 13.84L108.964 13.16C109.137 12.6 109.404 12.0933 109.764 11.64C110.124 11.1867 110.55 10.8267 111.044 10.56C111.55 10.2933 112.077 10.16 112.624 10.16C112.864 10.16 113.084 10.18 113.284 10.22C113.497 10.2467 113.684 10.2933 113.844 10.36L112.984 13.9C112.837 13.82 112.637 13.7533 112.384 13.7C112.144 13.6333 111.89 13.6 111.624 13.6C111.33 13.6 111.057 13.6533 110.804 13.76C110.564 13.8533 110.35 13.9933 110.164 14.18C109.99 14.3667 109.85 14.5867 109.744 14.84C109.65 15.0933 109.604 15.38 109.604 15.7V21H106.364Z" fill="black"/>
<path d="M121.392 21V7H124.812V17.98H131.052V21H121.392ZM137.468 21.2C136.375 21.2 135.395 20.9667 134.528 20.5C133.661 20.02 132.981 19.3667 132.488 18.54C131.995 17.7 131.748 16.7533 131.748 15.7C131.748 14.62 131.995 13.6667 132.488 12.84C132.981 12 133.661 11.3467 134.528 10.88C135.395 10.4 136.375 10.16 137.468 10.16C138.575 10.16 139.555 10.4 140.408 10.88C141.275 11.3467 141.955 12 142.448 12.84C142.941 13.6667 143.188 14.62 143.188 15.7C143.188 16.7533 142.941 17.7 142.448 18.54C141.955 19.3667 141.275 20.02 140.408 20.5C139.555 20.9667 138.575 21.2 137.468 21.2ZM137.468 18.44C137.948 18.44 138.368 18.32 138.728 18.08C139.101 17.84 139.395 17.5133 139.608 17.1C139.821 16.6867 139.921 16.22 139.908 15.7C139.921 15.1533 139.821 14.6733 139.608 14.26C139.395 13.8333 139.101 13.5067 138.728 13.28C138.368 13.04 137.948 12.92 137.468 12.92C137.001 12.92 136.581 13.04 136.208 13.28C135.835 13.52 135.541 13.8467 135.328 14.26C135.115 14.6733 135.008 15.1533 135.008 15.7C135.008 16.22 135.115 16.6867 135.328 17.1C135.541 17.5133 135.835 17.84 136.208 18.08C136.581 18.32 137.001 18.44 137.468 18.44ZM149.861 21.2C148.768 21.2 147.788 20.9667 146.921 20.5C146.054 20.02 145.374 19.3667 144.881 18.54C144.388 17.7 144.141 16.7533 144.141 15.7C144.141 14.62 144.388 13.6667 144.881 12.84C145.374 12 146.054 11.3467 146.921 10.88C147.788 10.4 148.768 10.16 149.861 10.16C150.968 10.16 151.948 10.4 152.801 10.88C153.668 11.3467 154.348 12 154.841 12.84C155.334 13.6667 155.581 14.62 155.581 15.7C155.581 16.7533 155.334 17.7 154.841 18.54C154.348 19.3667 153.668 20.02 152.801 20.5C151.948 20.9667 150.968 21.2 149.861 21.2ZM149.861 18.44C150.341 18.44 150.761 18.32 151.121 18.08C151.494 17.84 151.788 17.5133 152.001 17.1C152.214 16.6867 152.314 16.22 152.301 15.7C152.314 15.1533 152.214 14.6733 152.001 14.26C151.788 13.8333 151.494 13.5067 151.121 13.28C150.761 13.04 150.341 12.92 149.861 12.92C149.394 12.92 148.974 13.04 148.601 13.28C148.228 13.52 147.934 13.8467 147.721 14.26C147.508 14.6733 147.401 15.1533 147.401 15.7C147.401 16.22 147.508 16.6867 147.721 17.1C147.934 17.5133 148.228 17.84 148.601 18.08C148.974 18.32 149.394 18.44 149.861 18.44ZM157.274 25.4V10.38H160.334L160.474 12.72L159.854 12.54C159.934 12.1133 160.154 11.7267 160.514 11.38C160.887 11.02 161.347 10.7333 161.894 10.52C162.441 10.2933 163.021 10.18 163.634 10.18C164.541 10.18 165.347 10.4133 166.054 10.88C166.761 11.3467 167.314 12 167.714 12.84C168.127 13.6667 168.334 14.62 168.334 15.7C168.334 16.7533 168.127 17.6933 167.714 18.52C167.314 19.3467 166.754 20 166.034 20.48C165.327 20.9467 164.521 21.18 163.614 21.18C163.001 21.18 162.421 21.0667 161.874 20.84C161.327 20.6 160.867 20.2933 160.494 19.92C160.121 19.5467 159.881 19.14 159.774 18.7L160.514 18.4V25.4H157.274ZM162.834 18.46C163.314 18.46 163.727 18.3467 164.074 18.12C164.434 17.8933 164.707 17.5733 164.894 17.16C165.094 16.7333 165.194 16.2467 165.194 15.7C165.194 15.14 165.094 14.6533 164.894 14.24C164.707 13.8133 164.434 13.4867 164.074 13.26C163.727 13.02 163.314 12.9 162.834 12.9C162.341 12.9 161.914 13.02 161.554 13.26C161.194 13.4867 160.914 13.8067 160.714 14.22C160.514 14.6333 160.414 15.1267 160.414 15.7C160.414 16.2467 160.514 16.7333 160.714 17.16C160.914 17.5733 161.194 17.8933 161.554 18.12C161.914 18.3467 162.341 18.46 162.834 18.46Z" fill="#230F9F"/>
<path d="M0.0289366 12.2491C-0.349787 17.2938 3.03191 21.6355 7.65752 22.7577C8.86098 23.0494 10.0198 22.1299 10.0198 20.8919V18.5614C6.75573 18.5614 4.14136 15.7246 4.51311 12.3865C4.79696 9.84442 6.84373 7.79767 9.38598 7.5139C12.7242 7.14113 15.5621 9.75543 15.5621 13.0203V14.6667C15.5621 19.1546 19.0961 22.9318 23.5833 23.0375C28.205 23.1453 32 19.4167 32 14.8189C32 10.2864 28.3128 6.59929 23.7801 6.59929V8.99902C23.7801 10.055 24.4188 10.9825 25.3741 11.4344C26.7614 12.0899 27.6839 13.575 27.498 15.2461C27.3072 16.9596 25.9228 18.3449 24.2093 18.5367C21.9557 18.7888 20.0394 17.0239 20.0394 14.8199V13.0193C20.0394 7.24001 15.1211 2.58885 9.25055 3.02885C4.35202 3.39667 0.39672 7.35075 0.0289366 12.2491Z" fill="url(#paint0_linear_1523_263)"/>
<path d="M6.88656 15.7347C5.38532 14.0035 5.57177 11.3832 7.30294 9.88209C9.03421 8.38095 11.6546 8.56739 13.1558 10.2985C14.6571 12.0297 14.4706 14.65 12.7393 16.1512C11.0082 17.6523 8.38771 17.4658 6.88656 15.7347Z" fill="url(#paint1_linear_1523_263)"/>
<path d="M23.8226 17.3736C22.4115 17.3736 21.2676 16.2297 21.2676 14.8187C21.2676 13.4075 22.4115 12.2637 23.8226 12.2637C25.2337 12.2637 26.3777 13.4075 26.3777 14.8187C26.3777 16.2297 25.2337 17.3736 23.8226 17.3736Z" fill="url(#paint2_linear_1523_263)"/>
<defs>
<linearGradient id="paint0_linear_1523_263" x1="2.40709" y1="6.96051" x2="29.5922" y2="20.4754" gradientUnits="userSpaceOnUse">
<stop stop-color="#230F9F"/>
<stop offset="1" stop-color="#FF4081"/>
</linearGradient>
<linearGradient id="paint1_linear_1523_263" x1="12.349" y1="16.2811" x2="7.45571" y2="10.0673" gradientUnits="userSpaceOnUse">
<stop stop-color="#EF3071"/>
<stop offset="1" stop-color="#B4194E"/>
</linearGradient>
<linearGradient id="paint2_linear_1523_263" x1="21.652" y1="13.2736" x2="33.1117" y2="16.2827" gradientUnits="userSpaceOnUse">
<stop stop-color="#230F9F"/>
<stop offset="1" stop-color="#FF4081"/>
</linearGradient>
</defs>
</svg>
